# xmcd
#
# Track frame offsets: 
#        150
#        11294
#        22425
#        34537
#        46343
#        60040
#        73596
#        86309
#        100728
#        113826
#
# Disc length: 1761 seconds
#
# Revision: 0
# Processed by: cddbd v1.5.2PL0 Copyright (c) Steve Scherf et al.
# Submitted via: ExactAudioCopy v0.99pb4
#
DISCID=6e06df0a
DTITLE=Paul Yandell - In The Groove
DYEAR=2005
DGENRE=Instrumental
TTITLE0=Mister Sandman
TTITLE1=Avalon
TTITLE2=Just One Of Those Things
TTITLE3=Bugle Call Rag
TTITLE4=Stardust
TTITLE5=In The Groove
TTITLE6=Foggy Mountain Top
TTITLE7=Cherokee
TTITLE8=When I Stop Dreaming
TTITLE9=Hawaiian Wedding Song
EXTD=
EXTT0=
EXTT1=
EXTT2=
EXTT3=
EXTT4=
EXTT5=
EXTT6=
EXTT7=
EXTT8=
EXTT9=
PLAYORDER=
